200.ufo
<glyph name="quotedbl" format="1">
  <advance width="555.6"/>
  <unicode hex="0022"/>
  <outline>
    <contour>
      <point x="157" y="1074" type="line"/>
      <point x="186" y="1074" type="line"/>
      <point x="214" y="1503" type="line"/>
      <point x="124" y="1503" type="line"/>
    </contour>
    <contour>
      <point x="365" y="1074" type="line"/>
      <point x="394" y="1074" type="line"/>
      <point x="423" y="1503" type="line"/>
      <point x="332" y="1503" type="line"/>
    </contour>
  </outline>
</glyph>
<glyph name="numbersign" format="1">
  <advance width="1175.800"/>
  <unicode hex="0023"/>
  <outline>
    <contour>
      <point x="246" y="0" type="line"/>
      <point x="333" y="0" type="line"/>
      <point x="421" y="435" type="line"/>
      <point x="675" y="435" type="line"/>
      <point x="589" y="0" type="line"/>
      <point x="675" y="0" type="line"/>
      <point x="763" y="435" type="line"/>
      <point x="910" y="435" type="line"/>
      <point x="922" y="499" type="line"/>
      <point x="776" y="499" type="line"/>
      <point x="870" y="964" type="line"/>
      <point x="999" y="964" type="line"/>
      <point x="1011" y="1028" type="line"/>
      <point x="883" y="1028" type="line"/>
      <point x="968" y="1453" type="line"/>
      <point x="882" y="1453" type="line"/>
      <point x="796" y="1028" type="line"/>
      <point x="541" y="1028" type="line"/>
      <point x="626" y="1453" type="line"/>
      <point x="540" y="1453" type="line"/>
      <point x="454" y="1028" type="line"/>
      <point x="321" y="1028" type="line"/>
      <point x="313" y="964" type="line"/>
      <point x="440" y="964" type="line"/>
      <point x="347" y="499" type="line"/>
      <point x="233" y="499" type="line"/>
      <point x="224" y="435" type="line"/>
      <point x="334" y="435" type="line"/>
    </contour>
    <contour>
      <point x="434" y="499" type="line"/>
      <point x="528" y="964" type="line"/>
      <point x="782" y="964" type="line"/>
      <point x="688" y="499" type="line"/>
    </contour>
  </outline>
</glyph>
<glyph name="asterisk" format="1">
  <advance width="1223.6"/>
  <unicode hex="002A"/>
  <outline>
    <contour>
      <point x="391" y="604" type="line"/>
      <point x="604" y="1005" type="line"/>
      <point x="832" y="605" type="line"/>
      <point x="935" y="670"/>
      <point x="814" y="605"/>
      <point x="918" y="669" type="curve"/>
      <point x="750" y="884"/>
      <point x="690" y="975"/>
      <point x="650" y="1032" type="curve"/>
      <point x="1042" y="1122" type="line"/>
      <point x="1013" y="1227" type="line"/>
      <point x="631" y="1066" type="line"/>
      <point x="672" y="1500" type="line"/>
      <point x="551" y="1500" type="line"/>
      <point x="589" y="1066" type="line"/>
      <point x="209" y="1227" type="line"/>
      <point x="183" y="1122" type="line"/>
      <point x="565" y="1032" type="line"/>
      <point x="309" y="669" type="line"/>
    </contour>
  </outline>
</glyph>
<glyph name="comma" format="1">
  <advance width="447.6"/>
  <unicode hex="002C"/>
  <outline>
    <contour>
      <point x="155" y="-293" type="curve"/>
      <point x="189" y="-293" type="line"/>
      <point x="189" y="-293"/>
      <point x="266" y="118"/>
      <point x="266" y="168" type="curve"/>
      <point x="264" y="195" type="line"/>
      <point x="158" y="195" type="line"/>
      <point x="158" y="70"/>
      <point x="155" y="-293"/>
    </contour>
    <contour>
      <point x="204" y="315" type="move" name="_bot"/>
    </contour>
  </outline>
</glyph>
<glyph name="hyphen" format="1">
  <advance width="807.4"/>
  <unicode hex="002D"/>
  <outline>
    <contour>
      <point x="170" y="534" type="line"/>
      <point x="609" y="534" type="line"/>
      <point x="609" y="604" type="line"/>
      <point x="170" y="604" type="line"/>
    </contour>
    <contour>
      <point x="373" y="569" type="move" name="_mid"/>
    </contour>
  </outline>
</glyph>
<glyph name="three" format="1">
  <advance width="1196"/>
  <unicode hex="0033"/>
  <outline>
    <contour>
      <point x="558" y="-20" type="curve" smooth="yes"/>
      <point x="879" y="-20"/>
      <point x="1049" y="141"/>
      <point x="1049" y="391" type="curve" smooth="yes"/>
      <point x="1049" y="634"/>
      <point x="901" y="747"/>
      <point x="683" y="781" type="curve"/>
      <point x="683" y="775" type="line"/>
      <point x="891" y="811"/>
      <point x="1012" y="906"/>
      <point x="1012" y="1129" type="curve" smooth="yes"/>
      <point x="1012" y="1361"/>
      <point x="802" y="1476"/>
      <point x="559" y="1476" type="curve" smooth="yes"/>
      <point x="422" y="1476"/>
      <point x="278" y="1437"/>
      <point x="155" y="1361" type="curve"/>
      <point x="190" y="1298" type="line"/>
      <point x="191" y="1298" type="line"/>
      <point x="299" y="1365"/>
      <point x="443" y="1404"/>
      <point x="565" y="1404" type="curve" smooth="yes"/>
      <point x="754" y="1404"/>
      <point x="932" y="1331"/>
      <point x="932" y="1125" type="curve" smooth="yes"/>
      <point x="932" y="858"/>
      <point x="693" y="828"/>
      <point x="482" y="817" type="curve"/>
      <point x="420" y="817" type="line"/>
      <point x="431" y="738" type="line"/>
      <point x="480" y="738" type="line"/>
      <point x="729" y="733"/>
      <point x="973" y="690"/>
      <point x="973" y="383" type="curve" smooth="yes"/>
      <point x="973" y="150"/>
      <point x="815" y="50"/>
      <point x="566" y="50" type="curve" smooth="yes"/>
      <point x="405" y="50"/>
      <point x="272" y="102"/>
      <point x="210" y="139" type="curve"/>
      <point x="203" y="139" type="line"/>
      <point x="169" y="83" type="line"/>
      <point x="213" y="56"/>
      <point x="349" y="-20"/>
    </contour>
  </outline>
</glyph>
<glyph name="seven" format="1">
  <advance width="1196"/>
  <unicode hex="0037"/>
  <outline>
    <contour>
      <point x="390" y="0" type="line"/>
      <point x="463" y="0" type="line"/>
      <point x="1025" y="1385" type="line"/>
      <point x="1025" y="1456" type="line"/>
      <point x="209" y="1456" type="line"/>
      <point x="242" y="1389" type="line"/>
      <point x="951" y="1389" type="line"/>
    </contour>
  </outline>
</glyph>
<glyph name="semicolon" format="1">
  <advance width="448.800"/>
  <unicode hex="003B"/>
  <outline>
    <contour>
      <point x="117" y="-299" type="line"/>
      <point x="162" y="-299" type="line"/>
      <point x="283" y="120" type="line"/>
      <point x="173" y="120" type="line"/>
    </contour>
    <contour>
      <point x="228" y="884" type="curve" smooth="yes"/>
      <point x="292" y="884"/>
      <point x="303" y="928"/>
      <point x="303" y="962" type="curve" smooth="yes"/>
      <point x="303" y="996"/>
      <point x="292" y="1039"/>
      <point x="228" y="1039" type="curve" smooth="yes"/>
      <point x="161" y="1039"/>
      <point x="152" y="996"/>
      <point x="152" y="962" type="curve" smooth="yes"/>
      <point x="152" y="929"/>
      <point x="164" y="884"/>
    </contour>
  </outline>
</glyph>
<glyph name="equal" format="1">
  <advance width="1061"/>
  <unicode hex="003D"/>
  <outline>
    <contour>
      <point x="132" y="939" type="line"/>
      <point x="132" y="869" type="line"/>
      <point x="929" y="869" type="line"/>
      <point x="929" y="939" type="line"/>
    </contour>
    <contour>
      <point x="132" y="556" type="line"/>
      <point x="132" y="486" type="line"/>
      <point x="929" y="486" type="line"/>
      <point x="929" y="556" type="line"/>
    </contour>
  </outline>
</glyph>
<glyph name="H" format="1">
  <advance width="1487.2"/>
  <unicode hex="0048"/>
  <outline>
    <contour>
      <point x="1182" y="1455" type="line"/>
      <point x="1182" y="750" type="line"/>
      <point x="1236" y="777" type="line"/>
      <point x="256" y="777" type="line"/>
      <point x="305" y="750" type="line"/>
      <point x="305" y="1455" type="line"/>
      <point x="219" y="1455" type="line"/>
      <point x="219" y="0" type="line"/>
      <point x="305" y="0" type="line"/>
      <point x="305" y="743" type="line"/>
      <point x="256" y="718" type="line"/>
      <point x="1237" y="718" type="line"/>
      <point x="1182" y="743" type="line"/>
      <point x="1182" y="0" type="line"/>
      <point x="1268" y="0" type="line"/>
      <point x="1268" y="1455" type="line"/>
    </contour>
    <contour>
      <point x="744" y="0" type="move" name="bot"/>
    </contour>
    <contour>
      <point x="744" y="1455" type="move" name="top"/>
    </contour>
  </outline>
</glyph>
<glyph name="K" format="1">
  <advance width="1235.4"/>
  <unicode hex="004B"/>
  <outline>
    <contour>
      <point x="1127" y="1456" type="line"/>
      <point x="1030" y="1456" type="line"/>
      <point x="272" y="685" type="line"/>
      <point x="309" y="674" type="line"/>
      <point x="309" y="1456" type="line"/>
      <point x="223" y="1456" type="line"/>
      <point x="223" y="0" type="line"/>
      <point x="309" y="0" type="line"/>
      <point x="309" y="659" type="line"/>
      <point x="277" y="609" type="line"/>
      <point x="459" y="791" type="line"/>
      <point x="419" y="781" type="line"/>
      <point x="1072" y="0" type="line"/>
      <point x="1169" y="0" type="line"/>
      <point x="1169" y="7" type="line"/>
      <point x="475" y="841" type="line"/>
      <point x="485" y="790" type="line"/>
      <point x="1127" y="1449" type="line"/>
    </contour>
    <contour>
      <point x="618" y="0" type="move" name="bot"/>
    </contour>
    <contour>
      <point x="618" y="1455" type="move" name="top"/>
    </contour>
  </outline>
</glyph>
<glyph name="L" format="1">
  <advance width="1080"/>
  <unicode hex="004C"/>
  <outline>
    <contour>
      <point x="223" y="1455" type="line"/>
      <point x="223" y="0" type="line"/>
      <point x="1014" y="0" type="line"/>
      <point x="1011" y="67" type="line"/>
      <point x="260" y="67" type="line"/>
      <point x="309" y="16" type="line"/>
      <point x="309" y="1455" type="line"/>
    </contour>
    <contour>
      <point x="510" y="1254" type="move" name="_top.alt"/>
    </contour>
    <contour>
      <point x="540" y="1455" type="move" name="top"/>
    </contour>
    <contour>
      <point x="263" y="720" type="move" name="mid"/>
    </contour>
    <contour>
      <point x="589" y="748" type="move" name="mid_2"/>
    </contour>
    <contour>
      <point x="634" y="0" type="move" name="bot"/>
    </contour>
  </outline>
</glyph>
<glyph name="P" format="1">
  <advance width="1196.2"/>
  <unicode hex="0050"/>
  <outline>
    <contour>
      <point x="223" y="1455" type="curve"/>
      <point x="223" y="0" type="line"/>
      <point x="309" y="0" type="line"/>
      <point x="309" y="767" type="line"/>
      <point x="254" y="734" type="line"/>
      <point x="939" y="689"/>
      <point x="1094" y="788"/>
      <point x="1094" y="1113" type="curve" smooth="yes"/>
      <point x="1094" y="1415"/>
      <point x="927" y="1499"/>
    </contour>
    <contour>
      <point x="252" y="1386" type="line"/>
      <point x="858" y="1418"/>
      <point x="1008" y="1377"/>
      <point x="1008" y="1116" type="curve" smooth="yes"/>
      <point x="1008" y="808"/>
      <point x="888" y="777"/>
      <point x="252" y="801" type="curve"/>
      <point x="308" y="770" type="line"/>
      <point x="308" y="1438" type="line"/>
    </contour>
    <contour>
      <point x="598" y="0" type="move" name="bot"/>
    </contour>
    <contour>
      <point x="598" y="1455" type="move" name="top"/>
    </contour>
  </outline>
</glyph>
<glyph name="Q" format="1">
  <advance width="1646.6"/>
  <unicode hex="0051"/>
  <outline>
    <contour>
      <point x="987" y="14" type="line"/>
      <point x="1080" y="-171"/>
      <point x="1240" y="-341"/>
      <point x="1278" y="-394" type="curve"/>
      <point x="1323" y="-346" type="line"/>
      <point x="1251" y="-270"/>
      <point x="1095" y="-82"/>
      <point x="1042" y="36" type="curve"/>
    </contour>
    <component base="O"/>
  </outline>
</glyph>
<glyph name="R" format="1">
  <advance width="1404.6"/>
  <unicode hex="0052"/>
  <outline>
    <contour>
      <point x="223" y="0" type="line"/>
      <point x="309" y="0" type="line"/>
      <point x="309" y="779" type="line"/>
      <point x="283" y="757" type="line"/>
      <point x="894" y="757" type="line"/>
      <point x="841" y="803" type="line"/>
      <point x="1193" y="0" type="line"/>
      <point x="1272" y="0" type="line"/>
      <point x="1272" y="13" type="line"/>
      <point x="925" y="820" type="line"/>
      <point x="903" y="758" type="line"/>
      <point x="1111" y="786"/>
      <point x="1215" y="873"/>
      <point x="1215" y="1111" type="curve" smooth="yes"/>
      <point x="1215" y="1417"/>
      <point x="1106" y="1503"/>
      <point x="223" y="1455" type="curve"/>
    </contour>
    <contour>
      <point x="309" y="801" type="line"/>
      <point x="309" y="1412" type="line"/>
      <point x="282" y="1388" type="line"/>
      <point x="1025" y="1436"/>
      <point x="1135" y="1363"/>
      <point x="1135" y="1109" type="curve" smooth="yes"/>
      <point x="1135" y="898"/>
      <point x="1078" y="824"/>
      <point x="782" y="824" type="curve" smooth="yes"/>
      <point x="286" y="824" type="line"/>
    </contour>
    <contour>
      <point x="702" y="0" type="move" name="bot"/>
    </contour>
    <contour>
      <point x="698" y="1456" type="move" name="top"/>
    </contour>
  </outline>
</glyph>
<glyph name="T" format="1">
  <advance width="1121.8"/>
  <unicode hex="0054"/>
  <outline>
    <contour>
      <point x="57" y="1455" type="line"/>
      <point x="57" y="1398" type="line"/>
      <point x="551" y="1398" type="line"/>
      <point x="515" y="1431" type="line"/>
      <point x="515" y="0" type="line"/>
      <point x="600" y="0" type="line"/>
      <point x="600" y="1433" type="line"/>
      <point x="564" y="1398" type="line"/>
      <point x="1065" y="1398" type="line"/>
      <point x="1065" y="1455" type="line"/>
    </contour>
    <contour>
      <point x="561" y="0" type="move" name="bot"/>
    </contour>
    <contour>
      <point x="558" y="746" type="move" name="mid"/>
    </contour>
    <contour>
      <point x="561" y="1455" type="move" name="top"/>
    </contour>
  </outline>
</glyph>
<glyph name="bracketleft" format="1">
  <advance width="616.800"/>
  <unicode hex="005B"/>
  <outline>
    <contour>
      <point x="179" y="-346" type="line"/>
      <point x="601" y="-346" type="line"/>
      <point x="601" y="-281" type="line"/>
      <point x="248" y="-281" type="line"/>
      <point x="248" y="1370" type="line"/>
      <point x="601" y="1370" type="line"/>
      <point x="601" y="1438" type="line"/>
      <point x="179" y="1438" type="line"/>
    </contour>
  </outline>
</glyph>
<glyph name="bracketright" format="1">
  <advance width="620.400"/>
  <unicode hex="005D"/>
  <outline>
    <contour>
      <point x="18" y="-346" type="line"/>
      <point x="438" y="-346" type="line"/>
      <point x="438" y="1438" type="line"/>
      <point x="18" y="1438" type="line"/>
      <point x="18" y="1370" type="line"/>
      <point x="372" y="1370" type="line"/>
      <point x="372" y="-280" type="line"/>
      <point x="18" y="-280" type="line"/>
    </contour>
  </outline>
</glyph>
<glyph name="a" format="1">
  <advance width="1133.2"/>
  <unicode hex="0061"/>
  <outline>
    <contour>
      <point x="453" y="-14" type="curve" smooth="yes"/>
      <point x="578" y="-14"/>
      <point x="754" y="9"/>
      <point x="899" y="223" type="curve"/>
      <point x="868" y="216" type="line"/>
      <point x="887" y="1" type="line"/>
      <point x="951" y="1" type="line"/>
      <point x="951" y="734" type="line" smooth="yes"/>
      <point x="951" y="1012"/>
      <point x="795" y="1102"/>
      <point x="558" y="1102" type="curve" smooth="yes"/>
      <point x="438" y="1102"/>
      <point x="275" y="1060"/>
      <point x="200" y="1015" type="curve"/>
      <point x="236" y="946" type="line"/>
      <point x="328" y="1001"/>
      <point x="452" y="1031"/>
      <point x="563" y="1031" type="curve" smooth="yes"/>
      <point x="759" y="1031"/>
      <point x="861" y="933"/>
      <point x="861" y="753" type="curve" smooth="yes"/>
      <point x="861" y="572" type="line"/>
      <point x="891" y="606" type="line"/>
      <point x="654" y="610" type="line" smooth="yes"/>
      <point x="271" y="614"/>
      <point x="125" y="498"/>
      <point x="125" y="276" type="curve" smooth="yes"/>
      <point x="125" y="95"/>
      <point x="258" y="-14"/>
    </contour>
    <contour>
      <point x="457" y="58" type="curve" smooth="yes"/>
      <point x="330" y="58"/>
      <point x="219" y="126"/>
      <point x="219" y="277" type="curve" smooth="yes"/>
      <point x="219" y="452"/>
      <point x="283" y="548"/>
      <point x="662" y="545" type="curve" smooth="yes"/>
      <point x="879" y="543" type="line"/>
      <point x="861" y="556" type="line"/>
      <point x="861" y="234" type="line"/>
      <point x="873" y="280" type="line"/>
      <point x="740" y="92"/>
      <point x="597" y="58"/>
    </contour>
    <contour>
      <point x="916" y="0" type="move" name="ogonek"/>
    </contour>
    <contour>
      <point x="567" y="0" type="move" name="bot"/>
    </contour>
    <contour>
      <point x="557" y="1082" type="move" name="top"/>
    </contour>
  </outline>
</glyph>
<glyph name="e" format="1">
  <advance width="1117.2"/>
  <unicode hex="0065"/>
  <outline>
    <contour>
      <point x="604" y="-20" type="curve" smooth="yes"/>
      <point x="756" y="-20"/>
      <point x="867" y="19"/>
      <point x="968" y="73" type="curve"/>
      <point x="936" y="136" type="line"/>
      <point x="925" y="136" type="line"/>
      <point x="824" y="81"/>
      <point x="722" y="53"/>
      <point x="615" y="53" type="curve" smooth="yes"/>
      <point x="391" y="53"/>
      <point x="206" y="212"/>
      <point x="206" y="573" type="curve"/>
      <point x="167" y="547" type="line"/>
      <point x="986" y="547" type="line"/>
      <point x="986" y="547"/>
      <point x="991" y="575"/>
      <point x="991" y="609" type="curve" smooth="yes"/>
      <point x="991" y="917"/>
      <point x="851" y="1102"/>
      <point x="601" y="1102" type="curve" smooth="yes"/>
      <point x="350" y="1103"/>
      <point x="120" y="903"/>
      <point x="120" y="537" type="curve" smooth="yes"/>
      <point x="120" y="203"/>
      <point x="319" y="-20"/>
    </contour>
    <contour>
      <point x="211" y="608" type="line"/>
      <point x="235" y="854"/>
      <point x="376" y="1031"/>
      <point x="609" y="1031" type="curve" smooth="yes"/>
      <point x="823" y="1031"/>
      <point x="912" y="885"/>
      <point x="920" y="608" type="curve"/>
    </contour>
    <contour>
      <point x="694" y="0" type="move" name="ogonek"/>
    </contour>
    <contour>
      <point x="602" y="0" type="move" name="bot"/>
    </contour>
    <contour>
      <point x="576" y="1082" type="move" name="top"/>
    </contour>
  </outline>
</glyph>
<glyph name="h" format="1">
  <advance width="1181.6"/>
  <unicode hex="0068"/>
  <outline>
    <contour>
      <point x="189" y="0" type="line"/>
      <point x="281" y="0" type="line"/>
      <point x="281" y="657" type="line" smooth="yes"/>
      <point x="281" y="817"/>
      <point x="357" y="1033"/>
      <point x="651" y="1033" type="curve" smooth="yes"/>
      <point x="843" y="1033"/>
      <point x="913" y="911"/>
      <point x="913" y="680" type="curve" smooth="yes"/>
      <point x="913" y="0" type="line"/>
      <point x="1005" y="0" type="line"/>
      <point x="1005" y="674" type="line" smooth="yes"/>
      <point x="1005" y="931"/>
      <point x="899" y="1102"/>
      <point x="662" y="1102" type="curve" smooth="yes"/>
      <point x="457" y="1102"/>
      <point x="305" y="1010"/>
      <point x="243" y="819" type="curve"/>
      <point x="274" y="810" type="line"/>
      <point x="281" y="1122" type="line"/>
      <point x="281" y="1560" type="line"/>
      <point x="189" y="1540" type="line"/>
    </contour>
    <contour>
      <point x="283" y="1252" type="move" name="mid"/>
    </contour>
    <contour>
      <point x="570" y="1278" type="move" name="top"/>
    </contour>
  </outline>
</glyph>
<glyph name="i" format="1">
  <advance width="463"/>
  <unicode hex="0069"/>
  <outline>
    <component base="dotlessi"/>
    <component base="dotaccent" xOffset="99"/>
    <contour>
      <point x="238" y="0" type="move" name="ogonek"/>
    </contour>
  </outline>
</glyph>
<glyph name="k" format="1">
  <advance width="1054.6"/>
  <unicode hex="006B"/>
  <outline>
    <contour>
      <point x="189" y="0" type="line"/>
      <point x="281" y="0" type="line"/>
      <point x="281" y="427" type="line"/>
      <point x="251" y="369" type="line"/>
      <point x="452" y="548" type="line"/>
      <point x="394" y="548" type="line"/>
      <point x="908" y="0" type="line"/>
      <point x="1013" y="0" type="line"/>
      <point x="1013" y="4" type="line"/>
      <point x="451" y="594" type="line"/>
      <point x="451" y="550" type="line"/>
      <point x="1008" y="1077" type="line"/>
      <point x="1008" y="1082" type="line"/>
      <point x="911" y="1082" type="line"/>
      <point x="243" y="457" type="line"/>
      <point x="274" y="457" type="line"/>
      <point x="281" y="689" type="line"/>
      <point x="281" y="1560" type="line"/>
      <point x="189" y="1540" type="line"/>
    </contour>
    <contour>
      <point x="583" y="0" type="move" name="bot"/>
    </contour>
    <contour>
      <point x="583" y="1082" type="move" name="top"/>
    </contour>
  </outline>
</glyph>
<glyph name="n" format="1">
  <advance width="1166.4"/>
  <unicode hex="006E"/>
  <outline>
    <contour>
      <point x="188" y="0" type="line"/>
      <point x="280" y="0" type="line"/>
      <point x="280" y="672" type="line" smooth="yes"/>
      <point x="280" y="841"/>
      <point x="351" y="1033"/>
      <point x="644" y="1033" type="curve" smooth="yes"/>
      <point x="841" y="1033"/>
      <point x="899" y="907"/>
      <point x="898" y="712" type="curve"/>
      <point x="898" y="0" type="line"/>
      <point x="990" y="0" type="line"/>
      <point x="990" y="661" type="line" smooth="yes"/>
      <point x="990" y="967"/>
      <point x="886" y="1102"/>
      <point x="645" y="1102" type="curve" smooth="yes"/>
      <point x="431" y="1102"/>
      <point x="313" y="1003"/>
      <point x="262" y="865" type="curve"/>
      <point x="280" y="865" type="line"/>
      <point x="264" y="1082" type="line"/>
      <point x="188" y="1082" type="line"/>
    </contour>
    <contour>
      <point x="583" y="0" type="move" name="bot"/>
    </contour>
    <contour>
      <point x="643" y="1052" type="move" name="top"/>
    </contour>
  </outline>
</glyph>
<glyph name="v" format="1">
  <advance width="1034.6"/>
  <unicode hex="0076"/>
  <outline>
    <contour>
      <point x="465" y="0" type="line"/>
      <point x="568" y="0" type="line"/>
      <point x="973" y="1082" type="line"/>
      <point x="884" y="1082" type="line"/>
      <point x="649" y="427" type="line"/>
      <point x="495" y="21" type="line"/>
      <point x="534" y="21" type="line"/>
      <point x="384" y="422" type="line"/>
      <point x="150" y="1082" type="line"/>
      <point x="62" y="1082" type="line"/>
    </contour>
  </outline>
</glyph>
<glyph name="braceright" format="1">
  <advance width="826.6"/>
  <unicode hex="007D"/>
  <outline>
    <contour>
      <point x="130" y="-286" type="line"/>
      <point x="349" y="-286"/>
      <point x="411" y="-188"/>
      <point x="411" y="26" type="curve" smooth="yes"/>
      <point x="411" y="270" type="line" smooth="yes"/>
      <point x="411" y="461"/>
      <point x="419" y="583"/>
      <point x="626" y="587" type="curve"/>
      <point x="626" y="631" type="line"/>
      <point x="419" y="635"/>
      <point x="411" y="757"/>
      <point x="411" y="948" type="curve" smooth="yes"/>
      <point x="411" y="1192" type="line" smooth="yes"/>
      <point x="411" y="1406"/>
      <point x="341" y="1504"/>
      <point x="122" y="1504" type="curve"/>
      <point x="122" y="1449" type="line"/>
      <point x="274" y="1447"/>
      <point x="334" y="1389"/>
      <point x="334" y="1190" type="curve" smooth="yes"/>
      <point x="334" y="902" type="line" smooth="yes"/>
      <point x="334" y="727"/>
      <point x="356" y="629"/>
      <point x="511" y="609" type="curve"/>
      <point x="356" y="589"/>
      <point x="334" y="491"/>
      <point x="334" y="316" type="curve" smooth="yes"/>
      <point x="334" y="28" type="line" smooth="yes"/>
      <point x="334" y="-171"/>
      <point x="282" y="-229"/>
      <point x="130" y="-231" type="curve"/>
    </contour>
  </outline>
</glyph>
<glyph name="cent" format="1">
  <advance width="1015"/>
  <unicode hex="00A2"/>
  <outline>
    <contour>
      <point x="546" y="1372" type="line"/>
      <point x="546" y="1063" type="line"/>
      <point x="624" y="1063" type="line"/>
      <point x="624" y="1372" type="line"/>
    </contour>
    <contour>
      <point x="546" y="16" type="line"/>
      <point x="546" y="-287" type="line"/>
      <point x="624" y="-287" type="line"/>
      <point x="624" y="16" type="line"/>
    </contour>
    <component base="c"/>
  </outline>
</glyph>
<glyph name="currency" format="1">
  <advance width="1469.400"/>
  <unicode hex="00A4"/>
  <outline>
    <contour>
      <point x="997" y="1006" type="line"/>
      <point x="923" y="1072"/>
      <point x="825" y="1109"/>
      <point x="719" y="1109" type="curve" smooth="yes"/>
      <point x="613" y="1109"/>
      <point x="517" y="1076"/>
      <point x="439" y="1007" type="curve"/>
      <point x="254" y="1181" type="line"/>
      <point x="217" y="1145" type="line"/>
      <point x="405" y="966" type="line"/>
      <point x="344" y="893"/>
      <point x="314" y="801"/>
      <point x="314" y="705" type="curve" smooth="yes"/>
      <point x="314" y="609"/>
      <point x="343" y="522"/>
      <point x="405" y="446" type="curve"/>
      <point x="218" y="269" type="line"/>
      <point x="254" y="229" type="line"/>
      <point x="441" y="405" type="line"/>
      <point x="517" y="338"/>
      <point x="612" y="304"/>
      <point x="719" y="304" type="curve" smooth="yes"/>
      <point x="827" y="304"/>
      <point x="921" y="337"/>
      <point x="997" y="403" type="curve"/>
      <point x="1183" y="228" type="line"/>
      <point x="1215" y="267" type="line"/>
      <point x="1033" y="446" type="line"/>
      <point x="1093" y="517"/>
      <point x="1122" y="605"/>
      <point x="1122" y="705" type="curve" smooth="yes"/>
      <point x="1122" y="796"/>
      <point x="1095" y="885"/>
      <point x="1032" y="966" type="curve"/>
      <point x="1216" y="1141" type="line"/>
      <point x="1183" y="1181" type="line"/>
    </contour>
    <contour>
      <point x="1065" y="705" type="curve" smooth="yes"/>
      <point x="1065" y="516"/>
      <point x="944" y="349"/>
      <point x="719" y="349" type="curve" smooth="yes"/>
      <point x="496" y="349"/>
      <point x="373" y="515"/>
      <point x="373" y="705" type="curve" smooth="yes"/>
      <point x="373" y="896"/>
      <point x="496" y="1063"/>
      <point x="719" y="1063" type="curve" smooth="yes"/>
      <point x="943" y="1063"/>
      <point x="1065" y="894"/>
    </contour>
  </outline>
</glyph>
<glyph name="brokenbar" format="1">
  <advance width="60.400"/>
  <unicode hex="00A6"/>
  <outline>
    <contour>
      <point x="-11" y="541" type="line"/>
      <point x="-11" y="-127" type="line"/>
      <point x="51" y="-127" type="line"/>
      <point x="51" y="541" type="line"/>
    </contour>
    <contour>
      <point x="-11" y="1451" type="line"/>
      <point x="-11" y="786" type="line"/>
      <point x="51" y="786" type="line"/>
      <point x="51" y="1451" type="line"/>
    </contour>
  </outline>
</glyph>
<glyph name="dieresis" format="1">
  <advance width="783.4"/>
  <unicode hex="00A8"/>
  <outline>
    <contour>
      <point x="199" y="1351" type="curve" smooth="yes"/>
      <point x="251" y="1351"/>
      <point x="259" y="1387"/>
      <point x="259" y="1414" type="curve" smooth="yes"/>
      <point x="259" y="1440"/>
      <point x="251" y="1476"/>
      <point x="199" y="1476" type="curve" smooth="yes"/>
      <point x="145" y="1476"/>
      <point x="138" y="1440"/>
      <point x="138" y="1414" type="curve" smooth="yes"/>
      <point x="138" y="1387"/>
      <point x="148" y="1351"/>
    </contour>
    <contour>
      <point x="558" y="1351" type="curve" smooth="yes"/>
      <point x="609" y="1351"/>
      <point x="618" y="1386"/>
      <point x="618" y="1414" type="curve" smooth="yes"/>
      <point x="618" y="1440"/>
      <point x="609" y="1476"/>
      <point x="558" y="1476" type="curve" smooth="yes"/>
      <point x="504" y="1476"/>
      <point x="497" y="1440"/>
      <point x="497" y="1414" type="curve" smooth="yes"/>
      <point x="497" y="1387"/>
      <point x="506" y="1351"/>
    </contour>
    <contour>
      <point x="392" y="1082" type="move" name="_top"/>
    </contour>
  </outline>
</glyph>
<glyph name="logicalnot" format="1">
  <advance width="1220.2"/>
  <unicode hex="00AC"/>
  <outline>
    <contour>
      <point x="112" y="778" type="line"/>
      <point x="112" y="707" type="line"/>
      <point x="996" y="707" type="line"/>
      <point x="996" y="263" type="line"/>
      <point x="1061" y="263" type="line"/>
      <point x="1061" y="778" type="line"/>
    </contour>
  </outline>
</glyph>
<glyph name="threesuperior" format="1">
  <advance width="869.600"/>
  <unicode hex="00B3"/>
  <outline>
    <contour>
      <point x="442" y="674" type="curve" smooth="yes"/>
      <point x="570" y="674"/>
      <point x="686" y="747"/>
      <point x="686" y="896" type="curve" smooth="yes"/>
      <point x="686" y="1016"/>
      <point x="607" y="1081"/>
      <point x="519" y="1105" type="curve"/>
      <point x="607" y="1129"/>
      <point x="682" y="1192"/>
      <point x="682" y="1306" type="curve" smooth="yes"/>
      <point x="682" y="1455"/>
      <point x="566" y="1518"/>
      <point x="438" y="1518" type="curve" smooth="yes"/>
      <point x="332" y="1518"/>
      <point x="237" y="1483"/>
      <point x="188" y="1419" type="curve"/>
      <point x="228" y="1374" type="line"/>
      <point x="270" y="1423"/>
      <point x="333" y="1458"/>
      <point x="440" y="1458" type="curve" smooth="yes"/>
      <point x="541" y="1458"/>
      <point x="617" y="1410"/>
      <point x="617" y="1307" type="curve" smooth="yes"/>
      <point x="617" y="1205"/>
      <point x="539" y="1132"/>
      <point x="422" y="1132" type="curve" smooth="yes"/>
      <point x="315" y="1132" type="line"/>
      <point x="315" y="1076" type="line"/>
      <point x="422" y="1076" type="line" smooth="yes"/>
      <point x="539" y="1076"/>
      <point x="621" y="1003"/>
      <point x="621" y="895" type="curve" smooth="yes"/>
      <point x="621" y="792"/>
      <point x="545" y="734"/>
      <point x="444" y="734" type="curve" smooth="yes"/>
      <point x="337" y="734"/>
      <point x="270" y="769"/>
      <point x="228" y="818" type="curve"/>
      <point x="188" y="773" type="line"/>
      <point x="237" y="709"/>
      <point x="336" y="674"/>
    </contour>
  </outline>
</glyph>
<glyph name="acute" format="1">
  <advance width="675.4"/>
  <unicode hex="00B4"/>
  <outline>
    <contour>
      <point x="198" y="1165" type="line"/>
      <point x="247" y="1165" type="line"/>
      <point x="510" y="1515" type="line"/>
      <point x="413" y="1515" type="line"/>
    </contour>
    <contour>
      <point x="224" y="1082" type="move" name="_top"/>
    </contour>
  </outline>
</glyph>
<glyph name="paragraph" format="1">
  <advance width="1117.6"/>
  <unicode hex="00B6"/>
  <outline>
    <contour>
      <point x="642" y="1395" type="line"/>
      <point x="802" y="1395" type="line"/>
      <point x="802" y="-194" type="line"/>
      <point x="870" y="-194" type="line"/>
      <point x="870" y="1456" type="line"/>
      <point x="513" y="1456" type="line" smooth="yes"/>
      <point x="161" y="1456"/>
      <point x="152" y="1243"/>
      <point x="152" y="1156" type="curve" smooth="yes"/>
      <point x="152" y="994"/>
      <point x="230" y="833"/>
      <point x="574" y="833" type="curve"/>
      <point x="574" y="-194" type="line"/>
      <point x="642" y="-194" type="line"/>
    </contour>
  </outline>
</glyph>
<glyph name="periodcentered" format="1">
  <advance width="398"/>
  <unicode hex="00B7"/>
  <outline>
    <contour>
      <point x="200" y="547" type="curve" smooth="yes"/>
      <point x="264" y="547"/>
      <point x="275" y="591"/>
      <point x="275" y="625" type="curve" smooth="yes"/>
      <point x="275" y="658"/>
      <point x="264" y="702"/>
      <point x="200" y="702" type="curve" smooth="yes"/>
      <point x="133" y="702"/>
      <point x="124" y="658"/>
      <point x="124" y="625" type="curve" smooth="yes"/>
      <point x="124" y="592"/>
      <point x="136" y="547"/>
    </contour>
    <contour>
      <point x="199" y="626" type="move" name="_mid_2"/>
    </contour>
  </outline>
</glyph>
<glyph name="uni00B9" format="1">
  <advance width="908.2"/>
  <unicode hex="00B9"/>
  <outline>
    <contour>
      <point x="286" y="696" type="line"/>
      <point x="762" y="696" type="line"/>
      <point x="762" y="754" type="line"/>
      <point x="571" y="754" type="line"/>
      <point x="571" y="1512" type="line"/>
      <point x="501" y="1512" type="line"/>
      <point x="454" y="1465"/>
      <point x="348" y="1428"/>
      <point x="289" y="1415" type="curve"/>
      <point x="289" y="1354" type="line"/>
      <point x="355" y="1369"/>
      <point x="453" y="1401"/>
      <point x="491" y="1428" type="curve"/>
      <point x="491" y="754" type="line"/>
      <point x="286" y="754" type="line"/>
    </contour>
  </outline>
</glyph>
<glyph name="Oslash" format="1">
  <advance width="1682.6"/>
  <unicode hex="00D8"/>
  <outline>
    <contour>
      <point x="424" y="-197" type="line"/>
      <point x="476" y="-217" type="line"/>
      <point x="1224" y="1649" type="line"/>
      <point x="1169" y="1669" type="line"/>
    </contour>
    <component base="O"/>
  </outline>
</glyph>
<glyph name="ae" format="1">
  <advance width="1819.4"/>
  <unicode hex="00E6"/>
  <outline>
    <contour>
      <point x="1312" y="-19" type="curve" smooth="yes"/>
      <point x="1462" y="-19"/>
      <point x="1564" y="18"/>
      <point x="1668" y="71" type="curve"/>
      <point x="1638" y="132" type="line"/>
      <point x="1501" y="67"/>
      <point x="1429" y="55"/>
      <point x="1328" y="55" type="curve"/>
      <point x="1107" y="54"/>
      <point x="937" y="186"/>
      <point x="927" y="529" type="curve"/>
      <point x="1502" y="529"/>
      <point x="1670" y="555"/>
      <point x="1670" y="797" type="curve" smooth="yes"/>
      <point x="1670" y="940"/>
      <point x="1539" y="1069"/>
      <point x="1303" y="1069" type="curve" smooth="yes"/>
      <point x="1132" y="1069"/>
      <point x="939" y="967"/>
      <point x="911" y="764" type="curve"/>
      <point x="907" y="988"/>
      <point x="748" y="1070"/>
      <point x="543" y="1070" type="curve" smooth="yes"/>
      <point x="431" y="1070"/>
      <point x="282" y="1032"/>
      <point x="198" y="986" type="curve"/>
      <point x="231" y="916" type="line"/>
      <point x="333" y="973"/>
      <point x="469" y="999"/>
      <point x="576" y="999" type="curve"/>
      <point x="769" y="1000"/>
      <point x="842" y="895"/>
      <point x="842" y="723" type="curve" smooth="yes"/>
      <point x="842" y="596" type="line"/>
      <point x="634" y="596" type="line" smooth="yes"/>
      <point x="273" y="596"/>
      <point x="135" y="497"/>
      <point x="135" y="293" type="curve" smooth="yes"/>
      <point x="135" y="60"/>
      <point x="290" y="-13"/>
      <point x="457" y="-13" type="curve" smooth="yes"/>
      <point x="627" y="-13"/>
      <point x="839" y="75"/>
      <point x="926" y="189" type="curve"/>
      <point x="1005" y="56"/>
      <point x="1142" y="-19"/>
    </contour>
    <contour>
      <point x="469" y="70" type="curve" smooth="yes"/>
      <point x="332" y="70"/>
      <point x="230" y="140"/>
      <point x="230" y="311" type="curve" smooth="yes"/>
      <point x="230" y="467"/>
      <point x="315" y="532"/>
      <point x="665" y="532" type="curve" smooth="yes"/>
      <point x="841" y="532" type="line"/>
      <point x="840" y="447"/>
      <point x="853" y="347"/>
      <point x="889" y="261" type="curve"/>
      <point x="797" y="149"/>
      <point x="612" y="70"/>
    </contour>
    <contour>
      <point x="932" y="590" type="curve"/>
      <point x="954" y="812"/>
      <point x="1074" y="993"/>
      <point x="1304" y="993" type="curve" smooth="yes"/>
      <point x="1499" y="993"/>
      <point x="1594" y="886"/>
      <point x="1594" y="782" type="curve" smooth="yes"/>
      <point x="1594" y="614"/>
      <point x="1382" y="590"/>
    </contour>
    <contour>
      <point x="934" y="1052" type="move" name="top"/>
    </contour>
  </outline>
</glyph>
<glyph name="oslash" format="1">
  <advance width="1199"/>
  <unicode hex="00F8"/>
  <outline>
    <contour>
      <point x="236" y="-121" type="line"/>
      <point x="295" y="-152" type="line"/>
      <point x="1026" y="1191" type="line"/>
      <point x="962" y="1220" type="line"/>
    </contour>
    <component base="o"/>
    <contour>
      <point x="597" y="1082" type="move" name="top"/>
    </contour>
  </outline>
</glyph>
<glyph name="thorn" format="1">
  <advance width="1249"/>
  <unicode hex="00FE"/>
  <outline>
    <contour>
      <point x="188" y="290" type="line"/>
      <point x="188" y="-513" type="line"/>
      <point x="279" y="-513" type="line"/>
      <point x="279" y="290" type="line"/>
    </contour>
    <component base="b"/>
  </outline>
</glyph>
<glyph name="kgreenlandic" format="1">
  <advance width="1055"/>
  <unicode hex="0138"/>
  <outline>
    <contour>
      <point x="188" y="0" type="line"/>
      <point x="281" y="0" type="line"/>
      <point x="281" y="437" type="line"/>
      <point x="251" y="379" type="line"/>
      <point x="452" y="558" type="line"/>
      <point x="394" y="558" type="line"/>
      <point x="908" y="0" type="line"/>
      <point x="1004" y="0" type="line"/>
      <point x="1004" y="13" type="line"/>
      <point x="451" y="604" type="line"/>
      <point x="451" y="560" type="line"/>
      <point x="999" y="1068" type="line"/>
      <point x="999" y="1082" type="line"/>
      <point x="911" y="1082" type="line"/>
      <point x="243" y="467" type="line"/>
      <point x="274" y="467" type="line"/>
      <point x="281" y="699" type="line"/>
      <point x="281" y="1082" type="line"/>
      <point x="188" y="1082" type="line"/>
    </contour>
  </outline>
</glyph>
<glyph name="Eng" format="1">
  <advance width="1544"/>
  <unicode hex="014A"/>
  <outline>
    <contour>
      <point x="1254" y="590" type="line"/>
      <point x="1254" y="-28" type="line" smooth="yes"/>
      <point x="1254" y="-279"/>
      <point x="1167" y="-358"/>
      <point x="796" y="-358" type="curve"/>
      <point x="809" y="-423" type="line"/>
      <point x="1253" y="-423"/>
      <point x="1321" y="-282"/>
      <point x="1321" y="-50" type="curve" smooth="yes"/>
      <point x="1321" y="590" type="line"/>
    </contour>
    <component base="N"/>
  </outline>
</glyph>
<glyph name="eng" format="1">
  <advance width="1167"/>
  <unicode hex="014B"/>
  <outline>
    <contour>
      <point x="893" y="290" type="line"/>
      <point x="893" y="2" type="line" smooth="yes"/>
      <point x="893" y="-249"/>
      <point x="850" y="-328"/>
      <point x="520" y="-328" type="curve"/>
      <point x="533" y="-393" type="line"/>
      <point x="947" y="-393"/>
      <point x="985" y="-252"/>
      <point x="985" y="-20" type="curve" smooth="yes"/>
      <point x="985" y="290" type="line"/>
    </contour>
    <component base="n"/>
  </outline>
</glyph>
<glyph name="florin" format="1">
  <advance width="905"/>
  <unicode hex="0192"/>
  <outline>
    <contour>
      <point x="467" y="1162" type="curve" smooth="yes"/>
      <point x="399" y="812" type="line"/>
      <point x="237" y="812" type="line"/>
      <point x="228" y="756" type="line"/>
      <point x="391" y="756" type="line"/>
      <point x="271" y="153" type="line" smooth="yes"/>
      <point x="237" y="-19"/>
      <point x="231" y="-184"/>
      <point x="-36" y="-131" type="curve"/>
      <point x="-46" y="-178" type="line"/>
      <point x="202" y="-235"/>
      <point x="295" y="-166"/>
      <point x="358" y="152" type="curve" smooth="yes"/>
      <point x="477" y="756" type="line"/>
      <point x="735" y="756" type="line"/>
      <point x="744" y="812" type="line"/>
      <point x="489" y="812" type="line"/>
      <point x="553" y="1153" type="line" smooth="yes"/>
      <point x="584" y="1318"/>
      <point x="639" y="1389"/>
      <point x="738" y="1389" type="curve" smooth="yes"/>
      <point x="827" y="1389"/>
      <point x="879" y="1341"/>
      <point x="879" y="1223" type="curve"/>
      <point x="941" y="1223" type="line"/>
      <point x="941" y="1396"/>
      <point x="850" y="1456"/>
      <point x="738" y="1456" type="curve" smooth="yes"/>
      <point x="588" y="1456"/>
      <point x="506" y="1368"/>
    </contour>
  </outline>
</glyph>
<glyph name="circumflex" format="1">
  <advance width="844.4"/>
  <unicode hex="02C6"/>
  <outline>
    <contour>
      <point x="237" y="1202" type="line"/>
      <point x="412" y="1449" type="line"/>
      <point x="586" y="1202" type="line"/>
      <point x="640" y="1202" type="line"/>
      <point x="458" y="1505" type="line"/>
      <point x="365" y="1505" type="line"/>
      <point x="182" y="1202" type="line"/>
    </contour>
    <contour>
      <point x="422" y="1082" type="move" name="_top"/>
    </contour>
  </outline>
</glyph>
<glyph name="ring" format="1">
  <advance width="618"/>
  <unicode hex="02DA"/>
  <outline>
    <contour>
      <point x="309" y="1257" type="curve" smooth="yes"/>
      <point x="255" y="1257"/>
      <point x="208" y="1302"/>
      <point x="208" y="1357" type="curve" smooth="yes"/>
      <point x="208" y="1413"/>
      <point x="254" y="1456"/>
      <point x="309" y="1456" type="curve" smooth="yes"/>
      <point x="363" y="1456"/>
      <point x="411" y="1413"/>
      <point x="411" y="1357" type="curve" smooth="yes"/>
      <point x="411" y="1302"/>
      <point x="363" y="1257"/>
    </contour>
    <contour>
      <point x="309" y="1203" type="curve" smooth="yes"/>
      <point x="395" y="1203"/>
      <point x="470" y="1267"/>
      <point x="470" y="1359" type="curve" smooth="yes"/>
      <point x="470" y="1450"/>
      <point x="394" y="1514"/>
      <point x="309" y="1514" type="curve" smooth="yes"/>
      <point x="223" y="1514"/>
      <point x="148" y="1450"/>
      <point x="148" y="1359" type="curve" smooth="yes"/>
      <point x="148" y="1267"/>
      <point x="223" y="1203"/>
    </contour>
    <contour>
      <point x="309" y="1052" type="move" name="_top"/>
    </contour>
  </outline>
</glyph>
<glyph name="uni0307" format="1">
  <advance width="259"/>
  <unicode hex="0307"/>
  <outline>
    <contour>
      <point x="77" y="1360" type="line"/>
      <point x="188" y="1360" type="line"/>
      <point x="188" y="1520" type="line"/>
      <point x="77" y="1520" type="line"/>
    </contour>
    <contour>
      <point x="139" y="1052" type="move" name="_top"/>
    </contour>
  </outline>
</glyph>
<glyph name="commaturnedabovecomb" format="1">
  <advance width="600"/>
  <unicode hex="0312"/>
  <outline>
    <contour>
      <point x="244" y="1290" type="line"/>
      <point x="351" y="1290" type="line"/>
      <point x="351" y="1415"/>
      <point x="354" y="1778"/>
      <point x="354" y="1778" type="curve"/>
      <point x="320" y="1778" type="line"/>
      <point x="320" y="1778"/>
      <point x="243" y="1366"/>
      <point x="243" y="1317" type="curve"/>
    </contour>
    <contour>
      <point x="303" y="1052" type="move" name="_top"/>
    </contour>
  </outline>
</glyph>
<glyph name="Delta" format="1">
  <advance width="1361"/>
  <unicode hex="0394"/>
  <outline>
    <contour>
      <point x="128" y="0" type="line"/>
      <point x="1196" y="0" type="line"/>
      <point x="696" y="1500" type="line"/>
      <point x="610" y="1500" type="line"/>
    </contour>
    <contour>
      <point x="227" y="86" type="line"/>
      <point x="649" y="1418" type="line"/>
      <point x="1097" y="86" type="line"/>
    </contour>
  </outline>
</glyph>
<glyph name="pi" format="1">
  <advance width="1287"/>
  <unicode hex="03C0"/>
  <outline>
    <contour>
      <point x="1039" y="-7" type="curve" smooth="yes"/>
      <point x="1090" y="-7"/>
      <point x="1143" y="12"/>
      <point x="1187" y="44" type="curve"/>
      <point x="1187" y="93" type="line"/>
      <point x="1160" y="82"/>
      <point x="1120" y="72"/>
      <point x="1079" y="72" type="curve" smooth="yes"/>
      <point x="968" y="72"/>
      <point x="924" y="153"/>
      <point x="924" y="344" type="curve" smooth="yes"/>
      <point x="924" y="489"/>
      <point x="949" y="698"/>
      <point x="991" y="982" type="curve"/>
      <point x="1231" y="982" type="line"/>
      <point x="1231" y="1052" type="line"/>
      <point x="404" y="1052" type="line" smooth="yes"/>
      <point x="188" y="1052"/>
      <point x="135" y="974"/>
      <point x="135" y="756" type="curve"/>
      <point x="188" y="756" type="line"/>
      <point x="200" y="923"/>
      <point x="240" y="982"/>
      <point x="342" y="982" type="curve" smooth="yes"/>
      <point x="464" y="982" type="line"/>
      <point x="365" y="341" type="line" smooth="yes"/>
      <point x="331" y="123"/>
      <point x="191" y="62"/>
      <point x="103" y="62" type="curve"/>
      <point x="103" y="4" type="line"/>
      <point x="371" y="4"/>
      <point x="408" y="115"/>
      <point x="437" y="335" type="curve" smooth="yes"/>
      <point x="523" y="982" type="line"/>
      <point x="931" y="982" type="line"/>
      <point x="882" y="659"/>
      <point x="851" y="430"/>
      <point x="851" y="274" type="curve" smooth="yes"/>
      <point x="851" y="72"/>
      <point x="903" y="-7"/>
    </contour>
  </outline>
</glyph>
<glyph name="endash" format="1">
  <advance width="1325.400"/>
  <unicode hex="2013"/>
  <outline>
    <contour>
      <point x="149" y="579" type="line"/>
      <point x="1128" y="579" type="line"/>
      <point x="1128" y="670" type="line"/>
      <point x="149" y="670" type="line"/>
    </contour>
  </outline>
</glyph>
<glyph name="quotesinglbase" format="1">
  <advance width="400.400"/>
  <unicode hex="201A"/>
  <outline>
    <contour>
      <point x="94" y="-253" type="line"/>
      <point x="136" y="-253" type="line"/>
      <point x="238" y="179" type="line"/>
      <point x="165" y="179" type="line"/>
    </contour>
  </outline>
</glyph>
<glyph name="quotedblleft" format="1">
  <advance width="843.400"/>
  <unicode hex="201C"/>
  <outline>
    <contour>
      <point x="198" y="1027" type="line"/>
      <point x="295" y="1027" type="line"/>
      <point x="350" y="1476" type="line"/>
      <point x="295" y="1476" type="line"/>
    </contour>
    <contour>
      <point x="486" y="1027" type="line"/>
      <point x="583" y="1027" type="line"/>
      <point x="638" y="1476" type="line"/>
      <point x="583" y="1476" type="line"/>
    </contour>
  </outline>
</glyph>
<glyph name="quotedblright" format="1">
  <advance width="843.4"/>
  <unicode hex="201D"/>
  <outline>
    <contour>
      <point x="486" y="1007" type="line"/>
      <point x="541" y="1007" type="line"/>
      <point x="638" y="1456" type="line"/>
      <point x="541" y="1456" type="line"/>
    </contour>
    <contour>
      <point x="198" y="1007" type="line"/>
      <point x="253" y="1007" type="line"/>
      <point x="350" y="1456" type="line"/>
      <point x="253" y="1456" type="line"/>
    </contour>
  </outline>
</glyph>
<glyph name="perthousand" format="1">
  <advance width="2674"/>
  <unicode hex="2030"/>
  <outline>
    <contour>
      <point x="2240" y="53" type="curve" smooth="yes"/>
      <point x="2067" y="53"/>
      <point x="1991" y="184"/>
      <point x="1991" y="364" type="curve" smooth="yes"/>
      <point x="1991" y="540"/>
      <point x="2066" y="673"/>
      <point x="2240" y="673" type="curve" smooth="yes"/>
      <point x="2412" y="673"/>
      <point x="2486" y="546"/>
      <point x="2486" y="364" type="curve" smooth="yes"/>
      <point x="2486" y="189"/>
      <point x="2413" y="53"/>
    </contour>
    <contour>
      <point x="2237" y="-13" type="curve" smooth="yes"/>
      <point x="2460" y="-13"/>
      <point x="2569" y="152"/>
      <point x="2569" y="364" type="curve" smooth="yes"/>
      <point x="2569" y="579"/>
      <point x="2463" y="739"/>
      <point x="2237" y="739" type="curve" smooth="yes"/>
      <point x="2017" y="739"/>
      <point x="1907" y="576"/>
      <point x="1907" y="364" type="curve" smooth="yes"/>
      <point x="1907" y="152"/>
      <point x="2013" y="-13"/>
    </contour>
    <component base="percent"/>
  </outline>
</glyph>
<glyph name="foursuperior" format="1">
  <advance width="713.800"/>
  <unicode hex="2074"/>
  <outline>
    <contour>
      <point x="465" y="657" type="line"/>
      <point x="546" y="657" type="line"/>
      <point x="544" y="889" type="line"/>
      <point x="677" y="889" type="line"/>
      <point x="673" y="947" type="line"/>
      <point x="548" y="947" type="line"/>
      <point x="548" y="1516" type="line"/>
      <point x="459" y="1516" type="line"/>
      <point x="104" y="952" type="line"/>
      <point x="104" y="889" type="line"/>
      <point x="465" y="889" type="line"/>
    </contour>
    <contour>
      <point x="182" y="947" type="line"/>
      <point x="467" y="1416" type="line"/>
      <point x="465" y="947" type="line"/>
    </contour>
  </outline>
</glyph>
<glyph name="summation" format="1">
  <advance width="1363.800"/>
  <unicode hex="2211"/>
  <outline>
    <contour>
      <point x="156" y="1559" type="line"/>
      <point x="156" y="1496" type="line"/>
      <point x="769" y="603" type="line"/>
      <point x="132" y="-314" type="line"/>
      <point x="132" y="-375" type="line"/>
      <point x="1195" y="-375" type="line"/>
      <point x="1195" y="-266" type="line"/>
      <point x="220" y="-266" type="line"/>
      <point x="914" y="611" type="line"/>
      <point x="242" y="1462" type="line"/>
      <point x="1158" y="1462" type="line"/>
      <point x="1158" y="1559" type="line"/>
    </contour>
  </outline>
</glyph>
<glyph name="integral" format="1">
  <advance width="719"/>
  <unicode hex="222B"/>
  <outline>
    <contour>
      <point x="313" y="1136" type="curve" smooth="yes"/>
      <point x="313" y="-49" type="line" smooth="yes"/>
      <point x="313" y="-232"/>
      <point x="284" y="-342"/>
      <point x="147" y="-342" type="curve" smooth="yes"/>
      <point x="120" y="-342"/>
      <point x="87" y="-338"/>
      <point x="51" y="-329" type="curve"/>
      <point x="51" y="-398" type="line"/>
      <point x="92" y="-407"/>
      <point x="129" y="-411"/>
      <point x="162" y="-411" type="curve" smooth="yes"/>
      <point x="343" y="-411"/>
      <point x="399" y="-281"/>
      <point x="399" y="-41" type="curve" smooth="yes"/>
      <point x="399" y="1124" type="line" smooth="yes"/>
      <point x="399" y="1340"/>
      <point x="423" y="1403"/>
      <point x="540" y="1403" type="curve" smooth="yes"/>
      <point x="567" y="1403"/>
      <point x="597" y="1398"/>
      <point x="633" y="1388" type="curve"/>
      <point x="633" y="1455" type="line"/>
      <point x="589" y="1465"/>
      <point x="550" y="1470"/>
      <point x="516" y="1470" type="curve" smooth="yes"/>
      <point x="365" y="1470"/>
      <point x="313" y="1371"/>
    </contour>
  </outline>
</glyph>
<glyph name="approxequal" format="1">
  <advance width="1310"/>
  <unicode hex="2248"/>
  <outline>
    <contour>
      <point x="960" y="888" type="curve" smooth="yes"/>
      <point x="891" y="888"/>
      <point x="799" y="924"/>
      <point x="694" y="975" type="curve" smooth="yes"/>
      <point x="579" y="1031"/>
      <point x="472" y="1071"/>
      <point x="385" y="1071" type="curve" smooth="yes"/>
      <point x="282" y="1071"/>
      <point x="206" y="1016"/>
      <point x="176" y="866" type="curve"/>
      <point x="224" y="851" type="line"/>
      <point x="245" y="982"/>
      <point x="308" y="1026"/>
      <point x="390" y="1026" type="curve" smooth="yes"/>
      <point x="462" y="1026"/>
      <point x="548" y="992"/>
      <point x="632" y="951" type="curve" smooth="yes"/>
      <point x="765" y="886"/>
      <point x="880" y="845"/>
      <point x="966" y="845" type="curve" smooth="yes"/>
      <point x="1068" y="845"/>
      <point x="1130" y="903"/>
      <point x="1134" y="1048" type="curve"/>
      <point x="1089" y="1062" type="line"/>
      <point x="1088" y="936"/>
      <point x="1040" y="888"/>
    </contour>
    <contour>
      <point x="960" y="518" type="curve" smooth="yes"/>
      <point x="891" y="518"/>
      <point x="799" y="554"/>
      <point x="694" y="605" type="curve" smooth="yes"/>
      <point x="579" y="661"/>
      <point x="472" y="701"/>
      <point x="385" y="701" type="curve" smooth="yes"/>
      <point x="282" y="701"/>
      <point x="206" y="646"/>
      <point x="176" y="496" type="curve"/>
      <point x="224" y="481" type="line"/>
      <point x="245" y="612"/>
      <point x="308" y="656"/>
      <point x="390" y="656" type="curve" smooth="yes"/>
      <point x="462" y="656"/>
      <point x="548" y="622"/>
      <point x="632" y="581" type="curve" smooth="yes"/>
      <point x="765" y="516"/>
      <point x="880" y="475"/>
      <point x="966" y="475" type="curve" smooth="yes"/>
      <point x="1068" y="475"/>
      <point x="1130" y="533"/>
      <point x="1134" y="678" type="curve"/>
      <point x="1089" y="692" type="line"/>
      <point x="1088" y="566"/>
      <point x="1040" y="518"/>
    </contour>
  </outline>
</glyph>
<glyph name="middot" format="1">
  <advance width="398"/>
  <outline>
    <component base="period" xOffset="-30" yOffset="589"/>
    <contour>
      <point x="200" y="641" type="move" name="_mid"/>
    </contour>
  </outline>
</glyph>
